<svg width="34" height="34" viewBox="0 0 34 34" fill="none" xmlns="http://www.w3.org/2000/svg">
<circle cx="17" cy="17" r="17" fill="#FBFBFD"/>
<path d="M9.92438 24.2194L12.9632 23.2059L13.4951 23.4719C14.717 24.0814 16.0754 24.4062 17.5 24.4062C22.2581 24.4062 26.125 20.6601 26.125 16.5C26.125 12.3399 22.2581 8.59375 17.5 8.59375C12.7419 8.59375 8.875 12.3399 8.875 16.5C8.875 18.0525 9.43563 19.628 10.4663 20.9749L10.9622 21.6218L9.92294 24.2179L9.92438 24.2194ZM8.90806 26.0737C8.77798 26.1173 8.63814 26.1228 8.50506 26.0894C8.37198 26.0561 8.25122 25.9854 8.15705 25.8856C8.06288 25.7858 7.99923 25.6612 7.97361 25.5264C7.948 25.3916 7.96149 25.2524 8.0125 25.125L9.3235 21.8475C8.1275 20.2806 7.4375 18.4061 7.4375 16.5C7.4375 11.7361 11.75 7.15625 17.5 7.15625C23.25 7.15625 27.5625 11.7361 27.5625 16.5C27.5625 21.2639 23.25 25.8437 17.5 25.8437C15.8874 25.8483 14.296 25.4762 12.8526 24.757L8.90806 26.0723V26.0737Z" fill="#A2209E"/>
<path d="M17.5 17.65C17.349 17.65 17.1994 17.6203 17.0599 17.5625C16.9204 17.5047 16.7936 17.42 16.6868 17.3132C16.58 17.2064 16.4953 17.0796 16.4375 16.9401C16.3798 16.8006 16.35 16.651 16.35 16.5C16.35 16.349 16.3798 16.1994 16.4375 16.0599C16.4953 15.9204 16.58 15.7936 16.6868 15.6868C16.7936 15.58 16.9204 15.4953 17.0599 15.4375C17.1994 15.3798 17.349 15.35 17.5 15.35C17.805 15.35 18.0975 15.4712 18.3132 15.6868C18.5288 15.9025 18.65 16.195 18.65 16.5C18.65 16.805 18.5288 17.0975 18.3132 17.3132C18.0975 17.5288 17.805 17.65 17.5 17.65ZM21.8125 17.65C21.6615 17.65 21.5119 17.6203 21.3724 17.5625C21.2329 17.5047 21.1061 17.42 20.9993 17.3132C20.8925 17.2064 20.8078 17.0796 20.75 16.9401C20.6923 16.8006 20.6625 16.651 20.6625 16.5C20.6625 16.349 20.6923 16.1994 20.75 16.0599C20.8078 15.9204 20.8925 15.7936 20.9993 15.6868C21.1061 15.58 21.2329 15.4953 21.3724 15.4375C21.5119 15.3798 21.6615 15.35 21.8125 15.35C22.1175 15.35 22.41 15.4712 22.6257 15.6868C22.8413 15.9025 22.9625 16.195 22.9625 16.5C22.9625 16.805 22.8413 17.0975 22.6257 17.3132C22.41 17.5288 22.1175 17.65 21.8125 17.65ZM13.1875 17.65C13.0365 17.65 12.8869 17.6203 12.7474 17.5625C12.6079 17.5047 12.4811 17.42 12.3743 17.3132C12.2675 17.2064 12.1828 17.0796 12.125 16.9401C12.0673 16.8006 12.0375 16.651 12.0375 16.5C12.0375 16.349 12.0673 16.1994 12.125 16.0599C12.1828 15.9204 12.2675 15.7936 12.3743 15.6868C12.4811 15.58 12.6079 15.4953 12.7474 15.4375C12.8869 15.3798 13.0365 15.35 13.1875 15.35C13.4925 15.35 13.785 15.4712 14.0007 15.6868C14.2163 15.9025 14.3375 16.195 14.3375 16.5C14.3375 16.805 14.2163 17.0975 14.0007 17.3132C13.785 17.5288 13.4925 17.65 13.1875 17.65Z" fill="#A2209E"/>
</svg>
