<svg width="14" height="15" viewBox="0 0 14 15" fill="none" xmlns="http://www.w3.org/2000/svg">
<path d="M1.52999 6.98328V6.24994H2.62207C2.64225 6.43912 2.67524 6.67257 2.72926 6.9313C2.85684 7.54236 3.10933 8.33179 3.61994 9.00748V13.7667C3.61994 14.257 3.29972 14.5 3.08996 14.5H1.02999C0.820223 14.5 0.5 14.257 0.5 13.7667V9.45514L0.500233 9.45006C0.500691 9.44182 0.501827 9.42583 0.504526 9.4032C0.509942 9.35781 0.521526 9.28676 0.546059 9.19863C0.595054 9.02263 0.694764 8.7814 0.898766 8.53712C0.913898 8.519 0.928866 8.50111 0.943656 8.48344C1.15663 8.22895 1.33261 8.01867 1.427 7.79261C1.53104 7.54346 1.53055 7.29259 1.53005 7.03646C1.53002 7.01876 1.52999 7.00103 1.52999 6.98328ZM2.58996 3.89993V4.63327H1.52999V3.89993V3.39993H1.02999H0.646442C0.757794 3.24411 0.911509 3.16659 1.02999 3.16659H4.13494V3.28326C4.13494 3.2914 4.1352 3.33219 4.13683 3.39993H3.86245H3.08996H2.58996V3.89993Z" stroke="black"/>
<path d="M7.98079 2.99957C8.69881 2.88167 9.41652 2.7638 10.1345 2.64591C9.83193 2.08989 10.0346 1.40294 10.4295 1.20405C10.7499 1.04257 11.1934 1.20433 11.4297 1.63685C11.7328 1.48117 12.0904 1.61692 12.2541 1.94516C12.4131 2.26344 12.3478 2.6784 12.0981 2.91377C12.4629 2.94755 12.7689 3.20535 12.8575 3.54586C12.9797 4.01461 12.6858 4.62376 12.1373 4.76616C12.364 5.25327 12.1989 5.82269 11.8751 6.01561C11.5207 6.22697 10.9723 5.98941 10.8134 5.40434C10.5629 5.71888 10.139 5.70832 9.91431 5.42046C9.68442 5.12622 9.72271 4.61839 10.0299 4.36346C9.33621 4.14761 8.64255 3.93176 7.94889 3.71591C7.95952 3.47713 7.97014 3.238 7.98078 2.99921L7.98079 2.99957Z" stroke="black" stroke-miterlimit="10"/>
<circle cx="10.5" cy="8.5" r="0.5" fill="black"/>
<circle cx="13.5" cy="8.5" r="0.5" fill="black"/>
<circle cx="11.5" cy="10.5" r="0.5" fill="black"/>
</svg>
