<svg width="20" height="20" viewBox="0 0 20 20" fill="none" xmlns="http://www.w3.org/2000/svg">
<path d="M18.8934 3.91725L11.207 7.50853C10.9759 7.35563 10.7038 7.27373 10.4254 7.27322C10.0568 7.27322 9.70337 7.41736 9.44278 7.67393C9.18218 7.9305 9.03578 8.27848 9.03578 8.64132C9.03578 9.00417 9.18218 9.35215 9.44278 9.60872C9.70337 9.86529 10.0568 10.0094 10.4254 10.0094C11.1549 10.0094 11.7607 9.4533 11.8149 8.74804L16.0274 6.78138C17.2884 7.30537 18.068 7.98942 18.068 8.64132C18.068 9.93213 15.0964 11.3775 11.1201 11.3775C7.14388 11.3775 4.17229 9.93213 4.17229 8.64132C4.17229 7.35052 7.14388 5.90511 11.1201 5.90511C11.2396 5.90511 11.348 5.90237 11.4675 5.90511L13.9208 4.77232C12.9956 4.61713 12.0587 4.53842 11.1201 4.537C6.36781 4.537 2.78271 6.30049 2.78271 8.64132V15.4819C2.78271 16.1577 3.09189 16.7781 3.56435 17.2775C4.0368 17.7769 4.67948 18.1804 5.43193 18.5177C6.93475 19.1908 8.92462 19.5862 11.1201 19.5862C13.3157 19.5862 15.3048 19.1908 16.809 18.517C17.5608 18.1804 18.2035 17.7769 18.6759 17.2775C19.1484 16.7781 19.4576 16.1577 19.4576 15.4819V8.64132C19.4576 7.63098 18.7788 6.73282 17.6337 6.03303L19.4791 5.15744L18.8934 3.91725ZM4.17229 10.9712C4.87819 11.4952 5.82518 11.9255 6.95143 12.2326V17.6407C6.60403 17.534 6.28652 17.4082 5.9961 17.2775C5.36662 16.9943 4.88583 16.655 4.58499 16.3369C4.28345 16.0188 4.17229 15.7521 4.17229 15.4819V10.9712ZM18.068 10.9712V15.4819C18.068 15.7521 17.9568 16.0188 17.6553 16.3369C17.3544 16.655 16.8737 16.9936 16.2442 17.2775C15.9538 17.4082 15.6362 17.534 15.2888 17.6407V12.2326C16.4151 11.9248 17.3621 11.4952 18.068 10.9712ZM8.341 12.5315C9.25984 12.6779 10.1894 12.7495 11.1201 12.7456C12.0509 12.7495 12.9804 12.6779 13.8993 12.5315V17.9616C13.0447 18.1189 12.1081 18.2181 11.1201 18.2181C10.1322 18.2181 9.19558 18.1189 8.341 17.9616V12.5315Z" fill="black"/>
<rect width="1.37051" height="9.40923" transform="matrix(0.758168 -0.633614 0.696977 0.734503 0.156281 2.31198)" fill="black"/>
<ellipse cx="1.32474" cy="1.37329" rx="1.32474" ry="1.37329" transform="matrix(-0.488529 -0.872548 0.896889 -0.442256 6.81577 10.4241)" fill="black"/>
</svg>
