<svg width="17" height="17" viewBox="0 0 17 17" fill="none" xmlns="http://www.w3.org/2000/svg">
<path d="M16.8124 11.2995C16.3412 10.2022 15.2079 10.1619 13.6762 10.3812C13.6878 7.82325 14.1188 5.38031 14.9376 2.71069C15.3184 1.75471 12.4811 0.0187003 8.50037 0C4.51961 0.0187003 1.68208 1.75443 2.06287 2.71041C2.87687 5.36387 3.30498 7.82381 3.32028 10.3804C1.79059 10.1619 0.658697 10.2027 0.187522 11.2992C-0.838693 13.3384 2.40485 17 8.50009 17C14.5956 17 17.8389 13.3384 16.8124 11.2995ZM2.97009 12.9888C2.97009 12.9888 3.35457 11.6443 3.29308 10.9334C6.63749 13.9436 10.3633 13.9436 13.7074 10.9334C13.7201 11.6588 14.0301 12.9888 14.0301 12.9888C10.7378 16.1217 6.26265 16.1217 2.97009 12.9888Z" fill="black"/>
</svg>
