<svg width="21" height="22" viewBox="0 0 21 22" fill="none" xmlns="http://www.w3.org/2000/svg">
    <path d="M14.1391 16.6059L14.2985 15.5281C14.0031 15.0488 13.7073 14.5695 13.4119 14.0901"
        stroke="black" stroke-miterlimit="10" />
    <path
        d="M14.2525 1.80003L8.05526 2.00707C7.02629 2.04145 6.22171 2.85556 6.25818 3.82544L6.62828 13.6674C6.66475 14.6373 7.52847 15.3956 8.55744 15.3613L14.7546 15.1542C15.7836 15.1198 16.5882 14.3057 16.5517 13.3359L16.1816 3.4939C16.1452 2.52403 15.2814 1.76565 14.2525 1.80003Z"
        fill="black" />
    <path
        d="M8.91014 1.34311L2.8284 2.48441C1.8186 2.67391 1.16298 3.59912 1.36402 4.55093L3.2402 13.4333C3.44125 14.3851 4.42283 15.0031 5.43263 14.8136L11.5144 13.6723C12.5242 13.4828 13.1798 12.5576 12.9787 11.6058L11.1026 2.7234C10.9015 1.77159 9.91994 1.15362 8.91014 1.34311Z"
        fill="white" stroke="black" stroke-miterlimit="10" />
    <path
        d="M15.0497 6.8196C18.0616 8.35126 18.8698 10.1862 19.122 10.9422C19.3825 11.7231 19.4215 12.4935 19.4992 14.0342C19.5822 15.6787 19.5276 17.0403 19.4613 17.9791C17.0985 18.0147 14.7357 18.0501 12.3728 18.0858L12.486 17.0196C12.4344 17.0213 11.4144 17.039 10.8646 16.2376C10.3994 15.5595 10.6431 14.8375 10.676 14.7449C12.5766 15.2085 13.2602 14.999 13.5039 14.6739C13.7163 14.3906 13.5802 14.0384 13.8811 13.43C14.0958 12.9957 14.4019 12.6958 14.6351 12.5059C14.2673 12.1963 13.7388 11.7377 13.1268 11.1553C11.8053 9.89812 11.6391 9.53435 11.6939 9.20071C11.7218 9.03098 11.8429 8.65118 12.5611 8.27662C12.808 8.29487 13.1863 8.34352 13.6169 8.48975C14.1799 8.68131 14.6213 8.96879 15.7662 9.94677C16.3797 10.4709 17.1316 11.1113 17.1237 11.1196C17.1179 11.1257 16.7287 10.8023 14.9453 9.26926C14.7404 9.18108 14.6204 9.06885 14.5474 8.97376C14.1776 8.49223 14.3726 7.62205 15.05 6.81932L15.0497 6.8196Z"
        fill="white" stroke="black" stroke-miterlimit="10" />
    <path
        d="M19.6299 17.9752H11.5598C11.1722 17.9752 10.858 18.2714 10.858 18.6367V19.8944C10.858 20.2597 11.1722 20.5559 11.5598 20.5559H19.6299C20.0175 20.5559 20.3317 20.2597 20.3317 19.8944V18.6367C20.3317 18.2714 20.0175 17.9752 19.6299 17.9752Z"
        fill="white" stroke="black" stroke-miterlimit="10" />
    <path
        d="M7.80741 9.04801C7.78722 9.06638 7.76446 9.08666 7.73949 9.10701C7.68617 9.15156 7.62797 9.19058 7.56587 9.2234C7.53326 9.24031 7.49935 9.25466 7.46435 9.26659C7.45543 9.2692 7.4469 9.2728 7.43816 9.27538C7.42913 9.2775 7.41968 9.2811 7.41171 9.283L7.3999 9.28601L7.39444 9.28742L7.39105 9.28808L7.38666 9.28929L7.35591 9.29598C7.27861 9.31104 7.20345 9.31547 7.13023 9.31002C7.05985 9.30417 6.99046 9.29045 6.92349 9.26914C6.8708 9.25305 6.81918 9.23401 6.76888 9.21212C6.73028 9.19552 6.70744 9.18465 6.70744 9.18465C6.70744 9.18465 6.70794 9.19036 6.7109 9.20053C6.71429 9.21096 6.71942 9.22598 6.72782 9.24406C6.74513 9.28082 6.77632 9.3309 6.83143 9.38143C6.85836 9.40681 6.89169 9.43166 6.9308 9.45484C6.97062 9.47701 7.0161 9.49702 7.06682 9.51197C7.11792 9.52613 7.17396 9.53563 7.23128 9.53732C7.28899 9.5391 7.34742 9.53476 7.4048 9.52394L7.41105 9.52272L7.4133 9.52193L7.42633 9.51939L7.44401 9.51507L7.44865 9.51416L7.45421 9.51237L7.46581 9.50923L7.48865 9.50215C7.61828 9.46334 7.73105 9.3857 7.80993 9.28095C7.8361 9.24557 7.85626 9.20996 7.87086 9.17701C7.8855 9.14423 7.89472 9.11304 7.90113 9.08521C7.90729 9.05795 7.91011 9.03329 7.9112 9.01353C7.91257 8.97366 7.90693 8.95117 7.90693 8.95117C7.90693 8.95117 7.88984 8.96928 7.85977 8.99785C7.84279 9.01501 7.82534 9.03173 7.80741 9.04801ZM6.67903 8.19257C6.67363 8.16868 6.66201 8.14643 6.64521 8.12786C6.64772 8.12826 6.64933 8.12882 6.6518 8.12904C6.66142 8.12964 6.66991 8.13186 6.67864 8.1335C6.68769 8.1349 6.69635 8.13621 6.70448 8.1385C6.72137 8.14172 6.73766 8.14471 6.75141 8.1489C6.76576 8.15156 6.7789 8.15463 6.78875 8.15712C6.79949 8.15942 6.80862 8.16117 6.81442 8.16303L6.82337 8.16481C6.82337 8.16481 6.82203 8.16207 6.81886 8.15776C6.816 8.15321 6.81189 8.14627 6.80555 8.13853C6.79836 8.12837 6.79007 8.11896 6.78082 8.11043C6.77545 8.10487 6.76987 8.0995 6.7641 8.09432C6.75777 8.08921 6.75048 8.08394 6.74334 8.07847C6.73611 8.07266 6.72797 8.06773 6.71914 8.06223C6.71014 8.05677 6.70091 8.05117 6.69041 8.04653C6.68055 8.04229 6.67008 8.03694 6.65805 8.03294C6.64634 8.02887 6.63452 8.02506 6.62262 8.02154C6.59567 8.01511 6.56804 8.01152 6.54026 8.01082C6.53343 8.0111 6.52614 8.01093 6.51888 8.01094C6.51173 8.01145 6.50437 8.01183 6.49694 8.01275C6.48218 8.01333 6.46768 8.01686 6.45297 8.01938C6.4249 8.02584 6.39766 8.03522 6.37177 8.04734C6.32635 8.06918 6.28578 8.09908 6.25229 8.1354C6.2378 8.15178 6.22578 8.1675 6.21639 8.18253C6.19667 8.2133 6.18632 8.24102 6.18047 8.26029C6.17825 8.26776 6.17661 8.27538 6.17557 8.28308C6.1748 8.28575 6.17434 8.2885 6.17418 8.29127L6.20299 8.27228C6.22122 8.26028 6.24594 8.24384 6.27432 8.22546C6.28935 8.21673 6.30424 8.20731 6.32049 8.19816C6.31461 8.21934 6.31396 8.24151 6.31859 8.26296C6.33709 8.34791 6.43268 8.40146 6.53249 8.38202C6.63172 8.36251 6.69753 8.27752 6.67903 8.19257ZM8.00493 7.90454C7.99795 7.89441 7.98997 7.88495 7.98109 7.87626C7.97553 7.87074 7.96978 7.8654 7.96383 7.86026C7.95769 7.85512 7.9504 7.84985 7.94325 7.84437C7.93585 7.8386 7.92753 7.83371 7.91923 7.8281C7.91005 7.82268 7.90101 7.81704 7.89015 7.81247C7.88029 7.80823 7.87 7.80284 7.85814 7.79881C7.84635 7.79479 7.83448 7.791 7.82253 7.78744C7.79567 7.78113 7.76819 7.77752 7.74053 7.77666C7.73352 7.77697 7.72641 7.77677 7.71879 7.77684C7.71147 7.77739 7.70446 7.7777 7.69667 7.77869C7.68173 7.77931 7.66778 7.78273 7.65306 7.78525C7.55444 7.8079 7.46932 7.86657 7.41631 7.94843C7.40061 7.9727 7.38846 7.99887 7.3802 8.02623C7.37762 8.03571 7.37616 8.04357 7.37494 8.04909C7.37433 8.05396 7.37428 8.05714 7.37428 8.05714L7.40273 8.03822C7.42096 8.02622 7.44567 8.00978 7.47459 7.9913C7.48909 7.98267 7.50451 7.97315 7.5204 7.96407C7.51466 7.98526 7.51408 8.0074 7.51868 8.02883C7.53718 8.11378 7.63278 8.16733 7.73187 8.14803C7.8315 8.12862 7.89676 8.04373 7.87827 7.95878C7.87303 7.93492 7.86166 7.91265 7.84516 7.89394L7.85121 7.89522C7.86083 7.89581 7.8695 7.898 7.87859 7.89957C7.88711 7.90108 7.89612 7.90232 7.90407 7.90464C7.92097 7.90786 7.93707 7.91089 7.95101 7.91504C7.965 7.91777 7.9785 7.92078 7.98816 7.92329C7.99855 7.92567 8.00803 7.92734 8.01348 7.92928L8.02278 7.93099C8.02278 7.93099 8.02144 7.92825 8.01845 7.92391C8.0148 7.91695 8.01026 7.91045 8.00493 7.90454Z"
        fill="black" />
    <path
        d="M9.68046 4.8694C9.59726 4.88561 9.52812 4.92795 9.48094 4.98309C9.30806 4.88403 9.07045 4.76378 8.83659 4.69667C8.04431 4.47024 7.53512 4.90795 7.21435 5.45543C7.0003 5.1789 6.76595 4.91696 6.51304 4.67153C6.59863 4.60557 6.64475 4.5054 6.62268 4.40407C6.58977 4.25293 6.42014 4.15852 6.24302 4.19302C6.06645 4.22742 5.9497 4.37761 5.98261 4.52876C6.00427 4.62822 6.08569 4.70214 6.18912 4.73182C6.06019 5.04944 5.95474 5.37514 5.87354 5.70658C5.35219 5.32861 4.70636 5.12346 4.07757 5.62391C3.88946 5.77375 3.7211 5.97413 3.60361 6.13028C3.53338 6.09613 3.45288 6.08583 3.37559 6.10111C3.19848 6.13562 3.08155 6.28585 3.11453 6.43733C3.14744 6.58847 3.31761 6.68277 3.49473 6.64827C3.67131 6.61387 3.78802 6.46351 3.75515 6.31254L3.75427 6.31024C4.21106 6.25664 5.04337 6.30364 5.4852 7.21396C5.44298 7.53289 5.43472 8.47966 6.50806 9.66269C6.55161 9.71054 6.59334 9.75346 6.63482 9.79608L5.9172 11.9033L7.0921 10.4645L7.19807 11.6538L7.58254 10.3073L8.4834 11.4034L8.09689 10.2668L9.76373 11.154L8.23275 9.47529C8.25171 9.42389 8.27099 9.37226 8.28956 9.31565C8.77862 7.83407 8.38106 6.96812 8.2084 6.68718C8.21628 5.66004 8.972 5.31425 9.41915 5.20021C9.41934 5.20193 9.41918 5.20373 9.41954 5.20541C9.45245 5.35656 9.62266 5.45103 9.79978 5.41653C9.97653 5.3821 10.0934 5.2317 10.0605 5.08055C10.0274 4.92928 9.85722 4.83497 9.68046 4.8694ZM8.04887 9.24107C7.84204 9.86652 7.64956 10.033 7.52329 10.0617C7.39568 10.0825 7.14947 10.0014 6.69801 9.50422C5.96812 8.69931 5.7754 8.01333 5.7363 7.59528C5.81619 7.42287 5.96674 7.22701 6.24973 7.17188C6.78214 7.06817 6.99187 7.62109 6.99187 7.62109C6.99187 7.62109 6.95319 7.03485 7.48667 6.93093C7.76931 6.87587 7.98967 6.99983 8.13456 7.12845C8.27354 7.5274 8.38264 8.22931 8.04887 9.24107Z"
        fill="black" />
</svg>