<svg width="17" height="20" viewBox="0 0 17 20" fill="none" xmlns="http://www.w3.org/2000/svg">
<path d="M10.1172 19.2804L10.566 6.50685M6.5264 19.2804L6.07755 6.50685M11.9126 19.2804H4.731M11.9126 6.50685H4.731M2.9356 6.50685C2.9356 6.50685 2.48675 5.08756 3.16002 4.37791C3.8333 3.66827 5.17985 3.90482 5.17985 3.90482C5.17985 3.90482 5.17985 2.48553 6.07755 2.01244C6.97525 1.53934 8.3218 2.24898 8.3218 2.24898C8.3218 2.24898 9.2195 0.660801 10.566 1.06624C11.9126 1.47169 11.9126 3.19517 11.9126 3.19517C11.9126 3.19517 13.0347 3.19517 13.708 4.14137C14.3813 5.08756 13.708 6.50685 13.708 6.50685M13.1227 17.7987L15.5034 6.50685H1.1402L3.5209 17.7987C3.67081 18.5088 3.74532 18.8641 3.99174 19.0723C4.23771 19.2804 4.58288 19.2804 5.27366 19.2804H11.3695C12.0603 19.2804 12.4054 19.2804 12.6514 19.0723C12.8978 18.8641 12.9723 18.5093 13.1227 17.7987Z" stroke="#A2209E" stroke-linecap="round" stroke-linejoin="round"/>
</svg>
