<svg width="21" height="22" viewBox="0 0 21 22" fill="none" xmlns="http://www.w3.org/2000/svg">
<mask id="path-1-inside-1_40_50" fill="white">
<path d="M20.2171 20.8552L18.6276 15.1232C18.597 15.018 18.5394 14.9226 18.4605 14.8465C18.3816 14.7704 18.2842 14.7163 18.178 14.6895C17.8892 13.6569 17.0457 10.6999 15.3984 5.41674C14.0261 1.01728 10.455 -0.421867 7.52283 0.102903C4.62142 0.622614 2.74569 2.95119 2.96182 5.76514L3.14072 5.75213V6.70626C3.0107 6.60156 2.84789 6.54613 2.681 6.54977C2.32645 6.55302 2.04166 6.79697 2.04528 7.09369C2.04636 7.16272 2.11936 7.25235 2.22779 7.34885C0.894902 8.23539 -0.0426001 10.7664 0.00149214 13.7448C0.0289594 15.6414 0.934296 17.3412 1.81108 18.5519C0.781057 19.0405 0.0914837 19.9708 0.106663 21.0319C0.11353 21.5176 0.444944 21.6846 0.897071 21.6846C1.88842 21.6846 3.46056 20.8812 3.46056 20.8812C3.46056 20.8812 5.01464 21.6329 6.00816 21.6329C6.4798 21.6329 6.82495 21.4634 6.81736 20.964C6.80254 19.9025 6.08622 18.9867 5.04246 18.519C5.88419 17.2917 6.73965 15.5735 6.71219 13.6768C6.67062 10.7559 5.69698 8.28707 4.37819 7.3821C4.51878 7.26247 4.61708 7.15007 4.61564 7.06803C4.6113 6.77023 4.31928 6.53206 3.96401 6.53603C3.79755 6.53584 3.63643 6.59476 3.50936 6.70228V5.72466L3.69765 5.71093C3.47827 2.85108 5.52856 1.18533 7.658 0.804042C10.2659 0.337098 13.4511 1.64577 14.6914 5.62275C15.8689 9.39806 16.6347 11.9818 17.08 13.5225C16.364 12.6363 15.0872 12.3089 13.9874 12.8047C12.708 13.3805 12.1547 14.8492 12.7514 16.0853C12.8179 16.2226 12.8967 16.3498 12.9845 16.4694L11.0235 18.364H10.4318V19.2422H12.5428V18.364H12.283L13.6188 17.0737C13.9885 17.3187 14.4142 17.4662 14.8562 17.5024C15.2983 17.5385 15.7423 17.4622 16.1468 17.2804C16.675 17.0451 17.1057 16.6347 17.3662 16.1185L18.7823 21.2263C18.8741 21.5567 19.225 21.7522 19.5665 21.664L19.7642 21.6123C20.1061 21.5238 20.3085 21.1848 20.2171 20.8552ZM4.93115 17.3101C4.79562 17.3932 4.62576 17.4456 4.43421 17.4434C3.97594 17.4391 3.62139 17.1814 3.60188 16.8435C3.59284 16.6552 3.21083 16.6592 3.20685 16.8482C3.20035 17.1724 2.85195 17.4666 2.39657 17.4619C2.21581 17.4624 2.0381 17.4154 1.88119 17.3256C1.6159 16.8829 1.38849 16.4185 1.20138 15.9374C1.46557 16.0634 1.75595 16.1248 2.04853 16.1163C2.63763 16.103 3.13096 15.8594 3.38684 15.507C3.65537 15.8579 4.15448 16.1062 4.73924 16.0921C5.03006 16.0874 5.31638 16.0196 5.57844 15.8933C5.40369 16.3833 5.18713 16.8573 4.93115 17.3101ZM5.76131 15.297C5.58494 15.588 5.19896 15.8023 4.7349 15.7997C4.10026 15.7961 3.59682 15.4365 3.57586 14.9739C3.56827 14.7845 3.17722 14.7874 3.17649 14.9768C3.17144 15.426 2.67883 15.8276 2.04419 15.824C1.57689 15.8211 1.1815 15.6241 0.997543 15.3361C0.870695 14.9057 0.791076 14.4627 0.760096 14.0151C1.05573 14.276 1.47533 14.4441 1.9495 14.4325C2.57474 14.4177 3.09915 14.1286 3.35792 13.7144C3.62971 14.1264 4.16134 14.4199 4.7855 14.4051C5.25931 14.3946 5.67385 14.2243 5.96153 13.9638C5.94411 14.4142 5.87697 14.8613 5.76131 15.297ZM6.07755 20.9083C6.05445 20.9098 6.03131 20.9106 6.00816 20.9105C5.41327 20.9105 4.32976 20.4948 3.78764 20.2332L3.45153 20.0709L3.11939 20.2408C2.75292 20.4273 1.55882 20.9618 0.897071 20.9618C0.877554 20.9618 0.859845 20.9611 0.844666 20.9603C0.861652 20.2433 1.34992 19.5732 2.13274 19.2024L2.91772 18.8302L2.41283 18.1334C2.31899 18.0035 2.22789 17.8717 2.1396 17.738C2.22417 17.7503 2.31164 17.7571 2.40199 17.7546C2.83604 17.7427 3.20324 17.5743 3.41358 17.3231C3.6326 17.575 4.00485 17.7488 4.43818 17.7369C4.52745 17.734 4.61347 17.7243 4.69623 17.7094C4.6066 17.8526 4.51733 17.9892 4.43023 18.1168L3.94594 18.8233L4.73563 19.1771C5.52965 19.5324 6.03815 20.1913 6.07755 20.9083ZM5.65325 11.0642C5.24485 11.5304 4.67057 11.8889 4.0016 12.0519C3.0388 12.2861 2.01889 12.135 1.20391 11.6489C1.02067 11.5394 0.849364 11.7946 1.03152 11.903C1.90866 12.4267 3.06373 12.5998 4.09701 12.3327C4.73743 12.1683 5.30196 11.8564 5.73746 11.4426C5.85636 12.0277 5.93407 12.6677 5.96153 13.3512C5.8307 13.7762 5.36159 14.1145 4.78044 14.1119C4.09954 14.1087 3.55345 13.6869 3.53321 13.1463C3.52706 12.958 3.16565 12.9612 3.16385 13.1499C3.16023 13.6757 2.62715 14.1427 1.94516 14.1391C1.36148 14.1362 0.880807 13.8257 0.740218 13.3978C0.765878 11.174 1.37305 9.16133 2.32139 8.20937C2.51403 8.01602 2.70847 7.88771 2.90291 7.81146C3.14505 7.95385 3.34455 8.05685 3.34455 8.05685C3.34455 8.05685 3.51261 7.96542 3.72584 7.83567C4.48553 8.17865 5.2398 9.3583 5.65325 11.0642ZM15.608 16.1608C15.4427 16.2345 15.264 16.2732 15.083 16.2744C14.9021 16.2756 14.7228 16.2392 14.5566 16.1677L15.5769 15.1821L14.947 14.5731L13.9144 15.571C13.913 15.5681 13.9108 15.5663 13.9097 15.5637C13.6115 14.9454 13.888 14.2106 14.5274 13.9226C15.1674 13.6345 15.9275 13.902 16.226 14.52C16.5245 15.1384 16.2473 15.8724 15.608 16.1608Z"/>
</mask>
<path d="M20.2171 20.8552L18.6276 15.1232C18.597 15.018 18.5394 14.9226 18.4605 14.8465C18.3816 14.7704 18.2842 14.7163 18.178 14.6895C17.8892 13.6569 17.0457 10.6999 15.3984 5.41674C14.0261 1.01728 10.455 -0.421867 7.52283 0.102903C4.62142 0.622614 2.74569 2.95119 2.96182 5.76514L3.14072 5.75213V6.70626C3.0107 6.60156 2.84789 6.54613 2.681 6.54977C2.32645 6.55302 2.04166 6.79697 2.04528 7.09369C2.04636 7.16272 2.11936 7.25235 2.22779 7.34885C0.894902 8.23539 -0.0426001 10.7664 0.00149214 13.7448C0.0289594 15.6414 0.934296 17.3412 1.81108 18.5519C0.781057 19.0405 0.0914837 19.9708 0.106663 21.0319C0.11353 21.5176 0.444944 21.6846 0.897071 21.6846C1.88842 21.6846 3.46056 20.8812 3.46056 20.8812C3.46056 20.8812 5.01464 21.6329 6.00816 21.6329C6.4798 21.6329 6.82495 21.4634 6.81736 20.964C6.80254 19.9025 6.08622 18.9867 5.04246 18.519C5.88419 17.2917 6.73965 15.5735 6.71219 13.6768C6.67062 10.7559 5.69698 8.28707 4.37819 7.3821C4.51878 7.26247 4.61708 7.15007 4.61564 7.06803C4.6113 6.77023 4.31928 6.53206 3.96401 6.53603C3.79755 6.53584 3.63643 6.59476 3.50936 6.70228V5.72466L3.69765 5.71093C3.47827 2.85108 5.52856 1.18533 7.658 0.804042C10.2659 0.337098 13.4511 1.64577 14.6914 5.62275C15.8689 9.39806 16.6347 11.9818 17.08 13.5225C16.364 12.6363 15.0872 12.3089 13.9874 12.8047C12.708 13.3805 12.1547 14.8492 12.7514 16.0853C12.8179 16.2226 12.8967 16.3498 12.9845 16.4694L11.0235 18.364H10.4318V19.2422H12.5428V18.364H12.283L13.6188 17.0737C13.9885 17.3187 14.4142 17.4662 14.8562 17.5024C15.2983 17.5385 15.7423 17.4622 16.1468 17.2804C16.675 17.0451 17.1057 16.6347 17.3662 16.1185L18.7823 21.2263C18.8741 21.5567 19.225 21.7522 19.5665 21.664L19.7642 21.6123C20.1061 21.5238 20.3085 21.1848 20.2171 20.8552ZM4.93115 17.3101C4.79562 17.3932 4.62576 17.4456 4.43421 17.4434C3.97594 17.4391 3.62139 17.1814 3.60188 16.8435C3.59284 16.6552 3.21083 16.6592 3.20685 16.8482C3.20035 17.1724 2.85195 17.4666 2.39657 17.4619C2.21581 17.4624 2.0381 17.4154 1.88119 17.3256C1.6159 16.8829 1.38849 16.4185 1.20138 15.9374C1.46557 16.0634 1.75595 16.1248 2.04853 16.1163C2.63763 16.103 3.13096 15.8594 3.38684 15.507C3.65537 15.8579 4.15448 16.1062 4.73924 16.0921C5.03006 16.0874 5.31638 16.0196 5.57844 15.8933C5.40369 16.3833 5.18713 16.8573 4.93115 17.3101ZM5.76131 15.297C5.58494 15.588 5.19896 15.8023 4.7349 15.7997C4.10026 15.7961 3.59682 15.4365 3.57586 14.9739C3.56827 14.7845 3.17722 14.7874 3.17649 14.9768C3.17144 15.426 2.67883 15.8276 2.04419 15.824C1.57689 15.8211 1.1815 15.6241 0.997543 15.3361C0.870695 14.9057 0.791076 14.4627 0.760096 14.0151C1.05573 14.276 1.47533 14.4441 1.9495 14.4325C2.57474 14.4177 3.09915 14.1286 3.35792 13.7144C3.62971 14.1264 4.16134 14.4199 4.7855 14.4051C5.25931 14.3946 5.67385 14.2243 5.96153 13.9638C5.94411 14.4142 5.87697 14.8613 5.76131 15.297ZM6.07755 20.9083C6.05445 20.9098 6.03131 20.9106 6.00816 20.9105C5.41327 20.9105 4.32976 20.4948 3.78764 20.2332L3.45153 20.0709L3.11939 20.2408C2.75292 20.4273 1.55882 20.9618 0.897071 20.9618C0.877554 20.9618 0.859845 20.9611 0.844666 20.9603C0.861652 20.2433 1.34992 19.5732 2.13274 19.2024L2.91772 18.8302L2.41283 18.1334C2.31899 18.0035 2.22789 17.8717 2.1396 17.738C2.22417 17.7503 2.31164 17.7571 2.40199 17.7546C2.83604 17.7427 3.20324 17.5743 3.41358 17.3231C3.6326 17.575 4.00485 17.7488 4.43818 17.7369C4.52745 17.734 4.61347 17.7243 4.69623 17.7094C4.6066 17.8526 4.51733 17.9892 4.43023 18.1168L3.94594 18.8233L4.73563 19.1771C5.52965 19.5324 6.03815 20.1913 6.07755 20.9083ZM5.65325 11.0642C5.24485 11.5304 4.67057 11.8889 4.0016 12.0519C3.0388 12.2861 2.01889 12.135 1.20391 11.6489C1.02067 11.5394 0.849364 11.7946 1.03152 11.903C1.90866 12.4267 3.06373 12.5998 4.09701 12.3327C4.73743 12.1683 5.30196 11.8564 5.73746 11.4426C5.85636 12.0277 5.93407 12.6677 5.96153 13.3512C5.8307 13.7762 5.36159 14.1145 4.78044 14.1119C4.09954 14.1087 3.55345 13.6869 3.53321 13.1463C3.52706 12.958 3.16565 12.9612 3.16385 13.1499C3.16023 13.6757 2.62715 14.1427 1.94516 14.1391C1.36148 14.1362 0.880807 13.8257 0.740218 13.3978C0.765878 11.174 1.37305 9.16133 2.32139 8.20937C2.51403 8.01602 2.70847 7.88771 2.90291 7.81146C3.14505 7.95385 3.34455 8.05685 3.34455 8.05685C3.34455 8.05685 3.51261 7.96542 3.72584 7.83567C4.48553 8.17865 5.2398 9.3583 5.65325 11.0642ZM15.608 16.1608C15.4427 16.2345 15.264 16.2732 15.083 16.2744C14.9021 16.2756 14.7228 16.2392 14.5566 16.1677L15.5769 15.1821L14.947 14.5731L13.9144 15.571C13.913 15.5681 13.9108 15.5663 13.9097 15.5637C13.6115 14.9454 13.888 14.2106 14.5274 13.9226C15.1674 13.6345 15.9275 13.902 16.226 14.52C16.5245 15.1384 16.2473 15.8724 15.608 16.1608Z" fill="black" stroke="black" stroke-width="6" mask="url(#path-1-inside-1_40_50)"/>
<path d="M2.41894 9.05829C2.01126 9.06191 1.68382 9.30694 1.68924 9.60619C1.69503 9.90616 2.02861 10.1454 2.43628 10.1425C2.84287 10.1389 3.17031 9.89279 3.16525 9.59318C3.15947 9.29357 2.82661 9.05432 2.41894 9.05829Z" fill="black"/>
</svg>
