<svg width="14" height="17" viewBox="0 0 14 17" fill="none" xmlns="http://www.w3.org/2000/svg">
<path d="M8.5 16L8.875 5.51864M5.5 16L5.125 5.51864M10 16H4M10 5.51864H4M2.5 5.51864C2.5 5.51864 2.125 4.35404 2.6875 3.77175C3.25 3.18945 4.375 3.38355 4.375 3.38355C4.375 3.38355 4.375 2.21895 5.125 1.83075C5.875 1.44255 7 2.02485 7 2.02485C7 2.02485 7.75 0.72167 8.875 1.05436C10 1.38704 10 2.80125 10 2.80125C10 2.80125 10.9375 2.80125 11.5 3.57765C12.0625 4.35404 11.5 5.51864 11.5 5.51864M11.011 14.7842L13 5.51864H1L2.989 14.7842C3.11425 15.3668 3.1765 15.6584 3.38237 15.8292C3.58787 16 3.87625 16 4.45337 16H9.54625C10.1234 16 10.4118 16 10.6173 15.8292C10.8231 15.6584 10.8854 15.3672 11.011 14.7842Z" stroke="black" stroke-linecap="round" stroke-linejoin="round"/>
</svg>
