<svg width="34" height="34" viewBox="0 0 34 34" fill="none" xmlns="http://www.w3.org/2000/svg">
<circle cx="17" cy="17" r="17" fill="#FBFBFD"/>
<path d="M23.9286 17.5714H18.5714V22.9286C18.5714 23.2127 18.4585 23.4853 18.2576 23.6862C18.0567 23.8871 17.7842 24 17.5 24C17.2158 24 16.9433 23.8871 16.7424 23.6862C16.5415 23.4853 16.4286 23.2127 16.4286 22.9286V17.5714H11.0714C10.7873 17.5714 10.5147 17.4585 10.3138 17.2576C10.1129 17.0567 10 16.7842 10 16.5C10 16.2158 10.1129 15.9433 10.3138 15.7424C10.5147 15.5415 10.7873 15.4286 11.0714 15.4286H16.4286V10.0714C16.4286 9.78727 16.5415 9.51475 16.7424 9.31381C16.9433 9.11288 17.2158 9 17.5 9C17.7842 9 18.0567 9.11288 18.2576 9.31381C18.4585 9.51475 18.5714 9.78727 18.5714 10.0714V15.4286H23.9286C24.2127 15.4286 24.4853 15.5415 24.6862 15.7424C24.8871 15.9433 25 16.2158 25 16.5C25 16.7842 24.8871 17.0567 24.6862 17.2576C24.4853 17.4585 24.2127 17.5714 23.9286 17.5714Z" fill="#838383"/>
</svg>
