<svg width="20" height="19" viewBox="0 0 20 19" fill="none" xmlns="http://www.w3.org/2000/svg">
<path d="M20 5.71486C20 5.01628 19.4403 4.44988 18.75 4.44988H16.6163C17.1684 3.89867 17.5219 3.17607 17.5219 2.28613C17.5219 1.19035 16.9 0 15.1544 0C12.8575 0 10.9388 2.47493 10.0372 3.8623C9.135 2.47525 7.1575 0.000316222 4.86094 0.000316222C3.11531 0.000316222 2.49344 1.19066 2.49344 2.28645C2.49344 3.17605 2.85656 3.89898 3.42 4.4502H1.25C0.559687 4.4502 0 5.01659 0 5.71518V9.50158H1.26094V17.735C1.26094 18.4336 1.82061 19 2.51094 19H17.5047C18.195 19 18.7547 18.4336 18.7547 17.735V9.50127H20V5.71486H20ZM15.1544 1.2653C15.9272 1.2653 16.2719 1.59389 16.2719 2.28647C16.2719 3.69155 14.7222 4.44957 13.2647 4.44957H11.1488C12.0369 3.1147 13.6 1.2653 15.1544 1.2653ZM4.86092 1.26532C6.41561 1.26532 8.03777 3.11472 8.9259 4.44927H6.80934C5.35184 4.44927 3.7434 3.67162 3.7434 2.26655C3.7434 1.57429 4.08809 1.26532 4.86092 1.26532ZM18.75 8.23628H10.625V5.71486H18.75V8.23628ZM1.24998 5.71486H9.37498V8.23628H1.24998V5.71486ZM2.51092 9.50127H9.37498V17.7347H2.51092V9.50127ZM17.505 17.7347H10.625V9.50127H17.505V17.7347Z" fill="black"/>
</svg>
