<svg width="34" height="34" viewBox="0 0 34 34" fill="none" xmlns="http://www.w3.org/2000/svg">
    <circle cx="17" cy="17" r="17" fill="#FBFBFD" />
    <path
        d="M24.2614 25.7183L18.5341 19.9829C18.0227 20.3926 17.4347 20.7169 16.7699 20.9559C16.1051 21.1949 15.3977 21.3144 14.6477 21.3144C12.7898 21.3144 11.2175 20.6698 9.93091 19.3807C8.64432 18.0916 8.00068 16.5171 8 14.6572C8 12.7966 8.64364 11.2221 9.93091 9.93366C11.2182 8.64523 12.7905 8.00068 14.6477 8C16.5057 8 18.078 8.64455 19.3645 9.93366C20.6511 11.2228 21.2948 12.7973 21.2955 14.6572C21.2955 15.4082 21.1761 16.1166 20.9375 16.7824C20.6989 17.4481 20.375 18.037 19.9659 18.5491L25.7188 24.3101C25.9062 24.4979 26 24.7283 26 25.0014C26 25.2745 25.8977 25.5135 25.6932 25.7183C25.5057 25.9061 25.267 26 24.9773 26C24.6875 26 24.4489 25.9061 24.2614 25.7183ZM14.6477 19.266C15.9261 19.266 17.013 18.8178 17.9082 17.9213C18.8034 17.0248 19.2507 15.9367 19.25 14.6572C19.25 13.377 18.8024 12.2886 17.9072 11.3921C17.0119 10.4956 15.9255 10.0477 14.6477 10.0484C13.3693 10.0484 12.2825 10.4966 11.3873 11.3931C10.492 12.2896 10.0448 13.3776 10.0455 14.6572C10.0455 15.9374 10.4931 17.0258 11.3883 17.9223C12.2835 18.8188 13.37 19.2667 14.6477 19.266Z"
        fill="#838383" />
</svg>