<svg width="22" height="21" viewBox="0 0 22 21" fill="none" xmlns="http://www.w3.org/2000/svg">
<path d="M8.45915 5.0986C8.08262 5.0986 7.71455 5.21026 7.40147 5.41945C7.0884 5.62864 6.84438 5.92597 6.70029 6.27384C6.5562 6.62171 6.5185 7.00449 6.59196 7.37379C6.66541 7.74309 6.84673 8.08231 7.11298 8.34856C7.37923 8.61481 7.71845 8.79612 8.08775 8.86958C8.45704 8.94304 8.83983 8.90534 9.1877 8.76124C9.53557 8.61715 9.8329 8.37314 10.0421 8.06007C10.2513 7.74699 10.3629 7.37891 10.3629 7.00238C10.3629 6.49747 10.1624 6.01323 9.80533 5.65621C9.4483 5.29918 8.96407 5.0986 8.45915 5.0986ZM9.47183 7.12409L7.84002 7.93999C7.81928 7.95036 7.79624 7.95524 7.77308 7.9542C7.74992 7.95315 7.72742 7.9462 7.7077 7.934C7.68799 7.92181 7.67172 7.90477 7.66043 7.88452C7.64915 7.86427 7.64324 7.84147 7.64325 7.81829V6.18648C7.64326 6.16331 7.64919 6.14052 7.66048 6.12029C7.67177 6.10006 7.68805 6.08304 7.70776 6.07086C7.72747 6.05868 7.74997 6.05174 7.77311 6.0507C7.79626 6.04966 7.81929 6.05455 7.84002 6.06491L9.47183 6.88081C9.49439 6.89212 9.51335 6.90948 9.52661 6.93095C9.53986 6.95242 9.54688 6.97715 9.54688 7.00238C9.54688 7.02761 9.53986 7.05235 9.52661 7.07382C9.51335 7.09529 9.49439 7.11265 9.47183 7.12395V7.12409Z" fill="black"/>
<rect x="0.5" y="0.5" width="15.7879" height="12.8457" rx="1.5" stroke="black"/>
<path d="M1.52029 0.760138L14.9316 0.760137L16.2687 3.28837H0.519272L1.52029 0.760138Z" fill="black"/>
<rect x="3.64192" y="9.81497" width="9.17276" height="0.692284" rx="0.346142" fill="black"/>
<rect x="2.12837" y="1.52025" width="2.94221" height="0.692284" rx="0.346142" fill="white"/>
<circle cx="5.37257" cy="10.1611" r="0.692284" fill="black"/>
<circle cx="14.7462" cy="1.67227" r="0.456069" fill="white"/>
<circle cx="13.53" cy="1.67227" r="0.456069" fill="white"/>
<circle cx="12.3139" cy="1.67227" r="0.456069" fill="white"/>
<path d="M12.6342 10.0381L16.5283 9.17278L18.1724 12.115L18.6051 14.0188C17.3071 14.7976 14.711 16.3033 14.711 16.0956L11.5958 15.3168L9.77851 15.836L9.17276 14.8841L10.4708 13.413H11.8554L9.77851 10.0381V8.13435H11.4227L12.6342 10.0381Z" fill="white"/>
<path d="M12.2896 15.7162L12.194 15.9803L12.2891 15.716C12.2276 15.6966 12.1665 15.6755 12.1061 15.6526C11.9167 15.5926 11.7279 15.575 11.532 15.5897C11.5283 15.59 11.5245 15.5903 11.5207 15.5906C11.108 15.6242 10.6635 15.8 10.1166 16.0236L10.1034 16.029L10.0899 16.0336C10.051 16.047 10.0174 16.0584 9.99301 16.066L12.2896 15.7162ZM12.2896 15.7162L12.3642 15.5101C12.3041 15.4884 12.2438 15.469 12.1834 15.4521L12.2717 15.1807L12.1691 15.4481M12.2896 15.7162L12.1691 15.4481M12.1691 15.4481C11.9554 15.3897 11.7397 15.3623 11.5235 15.3707L11.5134 15.3711L11.5034 15.3719C11.0937 15.4045 10.7274 15.5646 10.4575 15.6826C10.4193 15.6993 10.3831 15.7151 10.3489 15.7297C10.2313 15.7797 10.1317 15.8179 10.0432 15.8442C10.0376 15.8458 10.032 15.8475 10.0264 15.849C9.99353 15.8584 9.96214 15.866 9.9319 15.872L9.84283 15.5891M12.1691 15.4481L9.93187 15.872L9.84283 15.5891M9.84283 15.5891C9.82531 15.5946 9.79966 15.5869 9.76586 15.5658L9.92731 15.5608C9.88849 15.5742 9.86034 15.5836 9.84283 15.5891ZM19.7651 15.3002L18.9519 13.974L18.7006 14.1281L15.0395 16.3728L14.7939 16.5234L15.6123 17.8581C15.6877 17.9749 15.8642 18.0378 16.027 17.9544L19.6715 15.7197C19.7872 15.6451 19.8519 15.4676 19.7651 15.3002Z" fill="black" stroke="black"/>
<circle cx="19.0378" cy="15.0572" r="0.346142" fill="white"/>
</svg>
